<?xml version="1.0" encoding="UTF-8"?>
<svg width="904px" height="1248px" viewBox="0 0 904 1248" version="1.1" xmlns="http://www.w3.org/2000/svg" xmlns:xlink="http://www.w3.org/1999/xlink">
    <!-- Generator: Sketch 54.1 (76490) - https://sketchapp.com -->
    <title>722fc6849c</title>
    <desc>Created with Sketch.</desc>
    <g id="Page-1" stroke="none" stroke-width="1" fill="none" fill-rule="evenodd">
        <g id="722fc6849c" fill="#FFFFFF" fill-rule="nonzero">
            <path d="M11.513218,14.849963 C26.663266,-0.019699 51.003628,0.207475 65.87329,15.357523 L446.165596,402.821159 L837.731666,11.261229 C852.742545,-3.753743 877.082906,-3.753743 892.091738,11.261229 C907.108756,26.272108 907.108756,50.612469 892.091738,65.622324 L473.091851,484.622209 C465.840703,491.88052 455.984218,495.933836 445.731713,495.883694 C435.472045,495.835599 425.657515,491.690185 418.474929,484.371499 L11.005658,69.211058 C3.663436,61.72762 0,52.006211 0,42.284802 C0,32.330079 3.845585,22.37638 11.513218,14.849963 Z" id="Path"></path>
            <path d="M11.513218,388.849963 C26.663266,373.980301 51.003628,374.207475 65.87329,389.357523 L446.165596,776.821159 L837.731666,385.261229 C852.742545,370.246257 877.082906,370.246257 892.091738,385.261229 C907.108756,400.272108 907.108756,424.612469 892.091738,439.622324 L473.091851,858.622209 C465.840703,865.88052 455.984218,869.933836 445.731713,869.883694 C435.472045,869.835599 425.657515,865.690185 418.474929,858.371499 L11.005658,443.211058 C3.663436,435.72762 0,426.006211 0,416.284802 C0,406.330079 3.845585,396.37638 11.513218,388.849963 Z" id="Path-Copy"></path>
            <path d="M11.513218,766.849963 C26.663266,751.980301 51.003628,752.207475 65.87329,767.357523 L446.165596,1154.82116 L837.731666,763.261229 C852.742545,748.246257 877.082906,748.246257 892.091738,763.261229 C907.108756,778.272108 907.108756,802.612469 892.091738,817.622324 L473.091851,1236.62221 C465.840703,1243.88052 455.984218,1247.93384 445.731713,1247.88369 C435.472045,1247.8356 425.657515,1243.69018 418.474929,1236.3715 L11.005658,821.211058 C3.663436,813.72762 0,804.006211 0,794.284802 C0,784.330079 3.845585,774.37638 11.513218,766.849963 Z" id="Path-Copy-2"></path>
        </g>
    </g>
</svg>