<?xml version="1.0" encoding="UTF-8"?>
<svg width="496px" height="904px" viewBox="0 0 496 904" version="1.1" xmlns="http://www.w3.org/2000/svg" xmlns:xlink="http://www.w3.org/1999/xlink">
    <!-- Generator: Sketch 54.1 (76490) - https://sketchapp.com -->
    <title>img-icon-down-arrows</title>
    <desc>Created with Sketch.</desc>
    <g id="Page-1" stroke="none" stroke-width="1" fill="none" fill-rule="evenodd">
        <g id="img-icon-down-arrows" transform="translate(248.000000, 452.000000) rotate(270.000000) translate(-248.000000, -452.000000) translate(-204.000000, 204.000000)" fill="#FFFFFF" fill-rule="nonzero">
            <path d="M11.513218,14.849963 C26.663266,-0.019699 51.003628,0.207475 65.87329,15.357523 L446.165596,402.82116 L837.731666,11.261229 C852.742545,-3.753743 877.082906,-3.753743 892.091738,11.261229 C907.108756,26.272108 907.108756,50.612469 892.091738,65.622324 L473.091851,484.62221 C465.840703,491.88052 455.984218,495.93384 445.731713,495.88369 C435.472045,495.8356 425.657515,491.69018 418.474929,484.3715 L11.005658,69.211058 C3.663436,61.72762 0,52.006211 0,42.284802 C0,32.330079 3.845585,22.37638 11.513218,14.849963 Z" id="Path-Copy-2"></path>
        </g>
    </g>
</svg>